<svg xmlns="http://www.w3.org/2000/svg" width="2560" height="1440"><path d="M1365,1076L1300,1399L1728,1209Z" fill="#d6ece3" stroke="#d6ece3" stroke-width="1.51"/><path d="M1300,1399L1735,1612L1728,1209Z" fill="#c0dee6" stroke="#c0dee6" stroke-width="1.51"/><path d="M1300,1399L1325,1649L1735,1612Z" fill="#bad5d6" stroke="#bad5d6" stroke-width="1.51"/><path d="M1728,1209L1648,837L1365,1076Z" fill="#e2f3f1" stroke="#e2f3f1" stroke-width="1.51"/><path d="M1300,1399L918,1280L1325,1649Z" fill="#ccdcc9" stroke="#ccdcc9" stroke-width="1.51"/><path d="M1365,1076L918,1280L1300,1399Z" fill="#dcead1" stroke="#dcead1" stroke-width="1.51"/><path d="M859,932L918,1280L1365,1076Z" fill="#ebeccb" stroke="#ebeccb" stroke-width="1.51"/><path d="M1735,1612L1974,1641L1728,1209Z" fill="#abd2e6" stroke="#abd2e6" stroke-width="1.51"/><path d="M1728,1209L2174,731L1648,837Z" fill="#daeeed" stroke="#daeeed" stroke-width="1.51"/><path d="M1749,1886L1974,1641L1735,1612Z" fill="#98bddb" stroke="#98bddb" stroke-width="1.51"/><path d="M1325,1649L1749,1886L1735,1612Z" fill="#a6c2d9" stroke="#a6c2d9" stroke-width="1.51"/><path d="M1974,1641L2157,1394L1728,1209Z" fill="#a8d3e6" stroke="#a8d3e6" stroke-width="1.51"/><path d="M961,593L859,932L1365,1076Z" fill="#f9f3c1" stroke="#f9f3c1" stroke-width="1.51"/><path d="M1325,1649L1130,1896L1749,1886Z" fill="#aabbc7" stroke="#aabbc7" stroke-width="1.51"/><path d="M796,1780L1130,1896L1325,1649Z" fill="#b3bab5" stroke="#b3bab5" stroke-width="1.51"/><path d="M2157,1394L2259,1336L1728,1209Z" fill="#abd8e8" stroke="#abd8e8" stroke-width="1.51"/><path d="M2289,1498L2259,1336L2157,1394Z" fill="#95c6df" stroke="#95c6df" stroke-width="1.51"/><path d="M2289,1498L2157,1394L1974,1641Z" fill="#92c4de" stroke="#92c4de" stroke-width="1.51"/><path d="M1749,1886L1900,1950L1974,1641Z" fill="#8bb0d4" stroke="#8bb0d4" stroke-width="1.51"/><path d="M1130,1896L1900,1950L1749,1886Z" fill="#9aadce" stroke="#9aadce" stroke-width="1.51"/><path d="M859,932L713,1088L918,1280Z" fill="#ebe2be" stroke="#ebe2be" stroke-width="1.51"/><path d="M918,1280L796,1780L1325,1649Z" fill="#c3ccba" stroke="#c3ccba" stroke-width="1.51"/><path d="M2333,1817L2289,1498L1974,1641Z" fill="#81b4d6" stroke="#81b4d6" stroke-width="1.51"/><path d="M1328,372L961,593L1365,1076Z" fill="#fffbb8" stroke="#fffbb8" stroke-width="1.51"/><path d="M2174,731L1888,531L1648,837Z" fill="#e3f0d6" stroke="#e3f0d6" stroke-width="1.51"/><path d="M713,1088L670,1445L918,1280Z" fill="#ded6b7" stroke="#ded6b7" stroke-width="1.51"/><path d="M2395,808L2174,731L2259,1336Z" fill="#bcdbe6" stroke="#bcdbe6" stroke-width="1.51"/><path d="M2259,1336L2174,731L1728,1209Z" fill="#bfe2ef" stroke="#bfe2ef" stroke-width="1.51"/><path d="M1328,372L1365,1076L1648,837Z" fill="#f7fbcf" stroke="#f7fbcf" stroke-width="1.51"/><path d="M859,932L490,882L713,1088Z" fill="#f6deb4" stroke="#f6deb4" stroke-width="1.51"/><path d="M670,1445L796,1780L918,1280Z" fill="#cbc7b0" stroke="#cbc7b0" stroke-width="1.51"/><path d="M1888,531L1472,367L1648,837Z" fill="#f2f1d0" stroke="#f2f1d0" stroke-width="1.51"/><path d="M1472,367L1328,372L1648,837Z" fill="#f9f1be" stroke="#f9f1be" stroke-width="1.51"/><path d="M796,1780L752,1825L1130,1896Z" fill="#b1aca7" stroke="#b1aca7" stroke-width="1.51"/><path d="M506,1822L752,1825L796,1780Z" fill="#b5a29c" stroke="#b5a29c" stroke-width="1.51"/><path d="M1900,1950L2333,1817L1974,1641Z" fill="#7facd2" stroke="#7facd2" stroke-width="1.51"/><path d="M2729,879L2259,1336L2850,1185Z" fill="#98bedc" stroke="#98bedc" stroke-width="1.51"/><path d="M2729,879L2395,808L2259,1336Z" fill="#accfe4" stroke="#accfe4" stroke-width="1.51"/><path d="M2174,731L2395,377L1888,531Z" fill="#d5ddc4" stroke="#d5ddc4" stroke-width="1.51"/><path d="M1472,367L1413,120L1328,372Z" fill="#fde1a4" stroke="#fde1a4" stroke-width="1.51"/><path d="M1328,372L970,42L961,593Z" fill="#ffdf94" stroke="#ffdf94" stroke-width="1.51"/><path d="M1888,531L1577,195L1472,367Z" fill="#f5e4bd" stroke="#f5e4bd" stroke-width="1.51"/><path d="M2136,145L1577,195L1888,531Z" fill="#e9d6b5" stroke="#e9d6b5" stroke-width="1.51"/><path d="M713,1088L363,982L670,1445Z" fill="#e8cfae" stroke="#e8cfae" stroke-width="1.51"/><path d="M670,1445L506,1822L796,1780Z" fill="#beada0" stroke="#beada0" stroke-width="1.51"/><path d="M532,507L490,882L859,932Z" fill="#ffde9d" stroke="#ffde9d" stroke-width="1.51"/><path d="M532,507L859,932L961,593Z" fill="#ffe69e" stroke="#ffe69e" stroke-width="1.51"/><path d="M244,1786L506,1822L670,1445Z" fill="#c0a295" stroke="#c0a295" stroke-width="1.51"/><path d="M752,1825L321,2007L1130,1896Z" fill="#af9a9a" stroke="#af9a9a" stroke-width="1.51"/><path d="M1577,195L1413,120L1472,367Z" fill="#fbdaa5" stroke="#fbdaa5" stroke-width="1.51"/><path d="M2333,1817L2557,1764L2289,1498Z" fill="#71a5ce" stroke="#71a5ce" stroke-width="1.51"/><path d="M2606,2148L2557,1764L2333,1817Z" fill="#5b89bf" stroke="#5b89bf" stroke-width="1.51"/><path d="M490,882L363,982L713,1088Z" fill="#f7d3ac" stroke="#f7d3ac" stroke-width="1.51"/><path d="M90,643L363,982L490,882Z" fill="#fdc693" stroke="#fdc693" stroke-width="1.51"/><path d="M970,42L532,507L961,593Z" fill="#fed887" stroke="#fed887" stroke-width="1.51"/><path d="M2395,808L2395,377L2174,731Z" fill="#c9d9c7" stroke="#c9d9c7" stroke-width="1.51"/><path d="M1577,195L1542,-313L1413,120Z" fill="#fbc498" stroke="#fbc498" stroke-width="1.51"/><path d="M2525,323L2395,377L2395,808Z" fill="#c4cbb8" stroke="#c4cbb8" stroke-width="1.51"/><path d="M2850,1185L2259,1336L2289,1498Z" fill="#8bbfdb" stroke="#8bbfdb" stroke-width="1.51"/><path d="M2395,377L2136,145L1888,531Z" fill="#d8d1b4" stroke="#d8d1b4" stroke-width="1.51"/><path d="M1063,-113L970,42L1413,120Z" fill="#ffc480" stroke="#ffc480" stroke-width="1.51"/><path d="M1413,120L970,42L1328,372Z" fill="#ffd890" stroke="#ffd890" stroke-width="1.51"/><path d="M2928,1461L2850,1185L2289,1498Z" fill="#7babd1" stroke="#7babd1" stroke-width="1.51"/><path d="M35,1194L244,1786L670,1445Z" fill="#d1a997" stroke="#d1a997" stroke-width="1.51"/><path d="M244,1786L321,2007L506,1822Z" fill="#b38688" stroke="#b38688" stroke-width="1.51"/><path d="M506,1822L321,2007L752,1825Z" fill="#b1908f" stroke="#b1908f" stroke-width="1.51"/><path d="M1130,1896L2606,2148L1900,1950Z" fill="#859bcb" stroke="#859bcb" stroke-width="1.51"/><path d="M2859,602L2395,808L2729,879Z" fill="#b2c5c6" stroke="#b2c5c6" stroke-width="1.51"/><path d="M2859,602L2525,323L2395,808Z" fill="#bac4b9" stroke="#bac4b9" stroke-width="1.51"/><path d="M2395,377L2525,323L2136,145Z" fill="#ccbfa9" stroke="#ccbfa9" stroke-width="1.51"/><path d="M1900,1950L2606,2148L2333,1817Z" fill="#698ec3" stroke="#698ec3" stroke-width="1.51"/><path d="M2557,1764L2928,1461L2289,1498Z" fill="#6ea4cd" stroke="#6ea4cd" stroke-width="1.51"/><path d="M321,2007L2606,2148L1130,1896Z" fill="#a3a4b9" stroke="#a3a4b9" stroke-width="1.51"/><path d="M2943,2111L2928,1461L2557,1764Z" fill="#5081bb" stroke="#5081bb" stroke-width="1.51"/><path d="M77,321L90,643L532,507Z" fill="#feb672" stroke="#feb672" stroke-width="1.51"/><path d="M1542,-313L1063,-113L1413,120Z" fill="#ffbb86" stroke="#ffbb86" stroke-width="1.51"/><path d="M363,982L35,1194L670,1445Z" fill="#e7bea2" stroke="#e7bea2" stroke-width="1.51"/><path d="M244,1786L2,1897L321,2007Z" fill="#b27680" stroke="#b27680" stroke-width="1.51"/><path d="M90,643L35,1194L363,982Z" fill="#f9b997" stroke="#f9b997" stroke-width="1.51"/><path d="M3144,843L2859,602L2729,879Z" fill="#a7b1bf" stroke="#a7b1bf" stroke-width="1.51"/><path d="M3144,843L2729,879L2850,1185Z" fill="#99aed1" stroke="#99aed1" stroke-width="1.51"/><path d="M406,63L532,507L970,42Z" fill="#febc6e" stroke="#febc6e" stroke-width="1.51"/><path d="M532,507L90,643L490,882Z" fill="#ffcb87" stroke="#ffcb87" stroke-width="1.51"/><path d="M2017,-237L1542,-313L1577,195Z" fill="#f4b39c" stroke="#f4b39c" stroke-width="1.51"/><path d="M2017,-237L1577,195L2136,145Z" fill="#e9bda1" stroke="#e9bda1" stroke-width="1.51"/><path d="M2285,-121L2017,-237L2136,145Z" fill="#dba996" stroke="#dba996" stroke-width="1.51"/><path d="M2285,-121L2136,145L2525,323Z" fill="#d0b39d" stroke="#d0b39d" stroke-width="1.51"/><path d="M2677,165L2285,-121L2525,323Z" fill="#c6a998" stroke="#c6a998" stroke-width="1.51"/><path d="M2859,602L2677,165L2525,323Z" fill="#b8afa5" stroke="#b8afa5" stroke-width="1.51"/><path d="M-147,1483L2,1897L244,1786Z" fill="#bc7e81" stroke="#bc7e81" stroke-width="1.51"/><path d="M740,-247L406,63L970,42Z" fill="#fca763" stroke="#fca763" stroke-width="1.51"/><path d="M740,-247L970,42L1063,-113Z" fill="#fdae6c" stroke="#fdae6c" stroke-width="1.51"/><path d="M1542,-313L1158,-348L1063,-113Z" fill="#fbad77" stroke="#fbad77" stroke-width="1.51"/><path d="M-247,1342L-147,1483L35,1194Z" fill="#d69689" stroke="#d69689" stroke-width="1.51"/><path d="M35,1194L-147,1483L244,1786Z" fill="#ce948b" stroke="#ce948b" stroke-width="1.51"/><path d="M2606,2148L2943,2111L2557,1764Z" fill="#4c70b2" stroke="#4c70b2" stroke-width="1.51"/><path d="M2943,2111L3173,1326L2928,1461Z" fill="#577eba" stroke="#577eba" stroke-width="1.51"/><path d="M2928,1461L3173,1326L2850,1185Z" fill="#7598c8" stroke="#7598c8" stroke-width="1.51"/><path d="M2859,602L3012,355L2677,165Z" fill="#b0a4a1" stroke="#b0a4a1" stroke-width="1.51"/><path d="M1158,-348L740,-247L1063,-113Z" fill="#faa569" stroke="#faa569" stroke-width="1.51"/><path d="M3173,1326L3144,843L2850,1185Z" fill="#889ccb" stroke="#889ccb" stroke-width="1.51"/><path d="M13,344L77,321L109,-137Z" fill="#f98f53" stroke="#f98f53" stroke-width="1.51"/><path d="M406,63L77,321L532,507Z" fill="#fdaf67" stroke="#fdaf67" stroke-width="1.51"/><path d="M-297,1060L-247,1342L35,1194Z" fill="#e19a8b" stroke="#e19a8b" stroke-width="1.51"/><path d="M-147,1483L-365,1884L2,1897Z" fill="#b46e77" stroke="#b46e77" stroke-width="1.51"/><path d="M-149,685L35,1194L90,643Z" fill="#f9af86" stroke="#f9af86" stroke-width="1.51"/><path d="M13,344L-149,685L90,643Z" fill="#fba86e" stroke="#fba86e" stroke-width="1.51"/><path d="M109,-137L77,321L406,63Z" fill="#fa9052" stroke="#fa9052" stroke-width="1.51"/><path d="M77,321L13,344L90,643Z" fill="#fba667" stroke="#fba667" stroke-width="1.51"/><path d="M3144,843L3012,355L2859,602Z" fill="#a9a4ac" stroke="#a9a4ac" stroke-width="1.51"/><path d="M2439,-457L2094,-526L2285,-121Z" fill="#cb8882" stroke="#cb8882" stroke-width="1.51"/><path d="M-149,685L-297,1060L35,1194Z" fill="#f1a48f" stroke="#f1a48f" stroke-width="1.51"/><path d="M1158,-348L816,-641L740,-247Z" fill="#f1925a" stroke="#f1925a" stroke-width="1.51"/><path d="M1542,-313L1164,-529L1158,-348Z" fill="#f5a271" stroke="#f5a271" stroke-width="1.51"/><path d="M1684,-575L1164,-529L1542,-313Z" fill="#ec9a7c" stroke="#ec9a7c" stroke-width="1.51"/><path d="M2094,-526L2017,-237L2285,-121Z" fill="#d7968a" stroke="#d7968a" stroke-width="1.51"/><path d="M2094,-526L1684,-575L2017,-237Z" fill="#dc9186" stroke="#dc9186" stroke-width="1.51"/><path d="M2017,-237L1684,-575L1542,-313Z" fill="#e99c8c" stroke="#e99c8c" stroke-width="1.51"/><path d="M2439,-457L2285,-121L2805,-235Z" fill="#c18281" stroke="#c18281" stroke-width="1.51"/><path d="M-535,1487L-365,1884L-147,1483Z" fill="#b77377" stroke="#b77377" stroke-width="1.51"/><path d="M2,1897L-365,1884L321,2007Z" fill="#ad6576" stroke="#ad6576" stroke-width="1.51"/><path d="M-535,1487L-147,1483L-247,1342Z" fill="#c9837f" stroke="#c9837f" stroke-width="1.51"/><path d="M3045,-224L2805,-235L2677,165Z" fill="#b47880" stroke="#b47880" stroke-width="1.51"/><path d="M3144,843L3244,366L3012,355Z" fill="#a794a2" stroke="#a794a2" stroke-width="1.51"/><path d="M3173,1326L3244,366L3144,843Z" fill="#9c98bb" stroke="#9c98bb" stroke-width="1.51"/><path d="M2805,-235L2285,-121L2677,165Z" fill="#c18f8a" stroke="#c18f8a" stroke-width="1.51"/><path d="M158,-460L109,-137L406,63Z" fill="#f47545" stroke="#f47545" stroke-width="1.51"/><path d="M13,344L-365,390L-149,685Z" fill="#f59a61" stroke="#f59a61" stroke-width="1.51"/><path d="M-602,1398L-247,1342L-297,1060Z" fill="#d28c84" stroke="#d28c84" stroke-width="1.51"/><path d="M158,-460L406,63L740,-247Z" fill="#f5834c" stroke="#f5834c" stroke-width="1.51"/><path d="M3045,-224L2677,165L3012,355Z" fill="#b1878a" stroke="#b1878a" stroke-width="1.51"/><path d="M1684,-575L816,-641L1164,-529Z" fill="#e6956b" stroke="#e6956b" stroke-width="1.51"/><path d="M1164,-529L816,-641L1158,-348Z" fill="#eb9261" stroke="#eb9261" stroke-width="1.51"/><path d="M816,-641L681,-594L740,-247Z" fill="#e98351" stroke="#e98351" stroke-width="1.51"/><path d="M-590,801L-297,1060L-149,685Z" fill="#ee9b7b" stroke="#ee9b7b" stroke-width="1.51"/><path d="M-602,1398L-535,1487L-247,1342Z" fill="#c17f7e" stroke="#c17f7e" stroke-width="1.51"/><path d="M-452,307L-365,390L13,344Z" fill="#f08a53" stroke="#f08a53" stroke-width="1.51"/><path d="M2805,-235L2711,-423L2439,-457Z" fill="#b67077" stroke="#b67077" stroke-width="1.51"/><path d="M2439,-457L2711,-423L2094,-526Z" fill="#bd797a" stroke="#bd797a" stroke-width="1.51"/><path d="M3130,-395L2711,-423L2805,-235Z" fill="#aa6071" stroke="#aa6071" stroke-width="1.51"/><path d="M-535,1487L-602,1398L-365,1884Z" fill="#b07078" stroke="#b07078" stroke-width="1.51"/><path d="M-590,801L-602,1398L-297,1060Z" fill="#d88e87" stroke="#d88e87" stroke-width="1.51"/><path d="M-365,390L-590,801L-149,685Z" fill="#ef9867" stroke="#ef9867" stroke-width="1.51"/><path d="M3244,366L3045,-224L3012,355Z" fill="#ab7c87" stroke="#ab7c87" stroke-width="1.51"/><path d="M109,-137L-452,307L13,344Z" fill="#f3844c" stroke="#f3844c" stroke-width="1.51"/><path d="M-365,390L-452,307L-590,801Z" fill="#e68d5d" stroke="#e68d5d" stroke-width="1.51"/><path d="M158,-460L-24,-277L109,-137Z" fill="#ec5e3b" stroke="#ec5e3b" stroke-width="1.51"/><path d="M-24,-277L-452,307L109,-137Z" fill="#ee6b40" stroke="#ee6b40" stroke-width="1.51"/><path d="M-165,-581L158,-460L681,-594Z" fill="#dd5739" stroke="#dd5739" stroke-width="1.51"/><path d="M681,-594L158,-460L740,-247Z" fill="#ec7745" stroke="#ec7745" stroke-width="1.51"/><path d="M3045,-224L3130,-395L2805,-235Z" fill="#a95b71" stroke="#a95b71" stroke-width="1.51"/><path d="M2711,-423L3130,-395L2094,-526Z" fill="#b26a74" stroke="#b26a74" stroke-width="1.51"/><path d="M3244,366L3130,-395L3045,-224Z" fill="#a95f77" stroke="#a95f77" stroke-width="1.51"/><path d="M816,-641L-165,-581L681,-594Z" fill="#db6841" stroke="#db6841" stroke-width="1.51"/><path d="M158,-460L-165,-581L-24,-277Z" fill="#e14831" stroke="#e14831" stroke-width="1.51"/><path d="M-24,-277L-595,-222L-452,307Z" fill="#e45938" stroke="#e45938" stroke-width="1.51"/><path d="M-165,-581L-595,-222L-24,-277Z" fill="#dc3c2b" stroke="#dc3c2b" stroke-width="1.51"/><path d="M-452,307L-595,-222L-590,801Z" fill="#de7a4e" stroke="#de7a4e" stroke-width="1.51"/><path d="M-590,801L-628,-603L-602,1398Z" fill="#de895f" stroke="#de895f" stroke-width="1.51"/><path d="M-165,-581L-628,-603L-595,-222Z" fill="#c92627" stroke="#c92627" stroke-width="1.51"/><path d="M-595,-222L-628,-603L-590,801Z" fill="#d5573a" stroke="#d5573a" stroke-width="1.51"/><path d="M816,-641L-628,-603L-165,-581Z" fill="#d24031" stroke="#d24031" stroke-width="1.51"/></svg>